ffmpeg started on 2026-01-13 at 10:00:06
Report written to "D:\Convert\FFMetrics\reports\psnr_report-6.txt"
Log level: 32
Command line:
ffmpeg -hide_banner -nostdin -r 24000/1001 -i "F:\\Convert\\files\\[DC] Make Heroine ga Oosugiru - 07_Telegram_HEVC(109).mkv" -r 24000/1001 -i "F:\\Convert\\files\\[DC] Make Heroine ga Oosugiru - 07_Telegram.mp4" -lavfi "[0:v]settb=AVTB,setpts=PTS-STARTPTS,format=pix_fmts=yuv420p10le,fps=24000/1001,scale=1920:1080:flags=lanczos:param0=3:out_range=limited:out_color_matrix=bt709:out_chroma_loc=left,setsar=1/1,setdar=(1920/1080)*(1/1),colorspace=format=yuv420p10:range=tv:primaries=bt709:trc=bt709:space=bt709:fast=0[main];[1:v]settb=AVTB,setpts=PTS-STARTPTS,format=pix_fmts=yuv420p,fps=24000/1001,scale=1920:1080:flags=lanczos:param0=3:out_range=limited:out_color_matrix=bt709:out_chroma_loc=left,setsar=1.000,setdar=1.778,colorspace=format=yuv420p:range=tv:primaries=bt709:trc=bt709:space=bt709:fast=0[ref];[main][ref]psnr=eof_action=endall:stats_file='D\\:/Convert/FFMetrics/logs/psnr_logfile-6.txt'" -f null -
Input #0, matroska,webm, from 'F:\Convert\files\[DC] Make Heroine ga Oosugiru - 07_Telegram_HEVC(109).mkv':
  Metadata:
    COMPATIBLE_BRANDS: isomiso2avc1mp41
    MAJOR_BRAND     : isom
    MINOR_VERSION   : 512
    ENCODER         : Lavf61.7.100
  Duration: 00:24:06.79, start: -0.021000, bitrate: 1030 kb/s
  Stream #0:0: Video: hevc (Main 10), yuv420p10le(tv, bt709, progressive), 1920x1080 [SAR 1:1 DAR 16:9], 23.98 fps, 23.98 tbr, 1k tbn (default)
      Metadata:
        HANDLER_NAME    : VideoHandler
        VENDOR_ID       : [0][0][0][0]
        ENCODER         : Lavc61.19.100 libx265
        BPS             : 833521
        DURATION        : 00:24:06.569708333
        NUMBER_OF_FRAMES: 34683
        NUMBER_OF_BYTES : 150718379
        _STATISTICS_WRITING_APP: mkvpropedit v94.0 ('Initiate') 64-bit
        _STATISTICS_WRITING_DATE_UTC: 2026-01-12 13:06:02
        _STATISTICS_TAGS: BPS DURATION NUMBER_OF_FRAMES NUMBER_OF_BYTES
  Stream #0:1: Audio: aac (LC), 48000 Hz, stereo, fltp (default)
      Metadata:
        HANDLER_NAME    : SoundHandler
        VENDOR_ID       : [0][0][0][0]
        ENCODER         : Lavc61.19.100 aac
        BPS             : 193194
        DURATION        : 00:24:06.784000000
        NUMBER_OF_FRAMES: 67819
        NUMBER_OF_BYTES : 34938755
        _STATISTICS_WRITING_APP: mkvpropedit v94.0 ('Initiate') 64-bit
        _STATISTICS_WRITING_DATE_UTC: 2026-01-12 13:06:02
        _STATISTICS_TAGS: BPS DURATION NUMBER_OF_FRAMES NUMBER_OF_BYTES
Input #1, mov,mp4,m4a,3gp,3g2,mj2, from 'F:\Convert\files\[DC] Make Heroine ga Oosugiru - 07_Telegram.mp4':
  Metadata:
    major_brand     : isom
    minor_version   : 512
    compatible_brands: isomiso2avc1mp41
    encoder         : Lavf60.16.100
  Duration: 00:24:06.74, start: 0.000000, bitrate: 3764 kb/s
  Stream #1:0[0x1](und): Video: h264 (High) (avc1 / 0x31637661), yuv420p(tv, bt709, progressive), 1920x1080 [SAR 1:1 DAR 16:9], 3616 kb/s, 23.98 fps, 23.98 tbr, 24k tbn (default)
      Metadata:
        handler_name    : VideoHandler
        vendor_id       : [0][0][0][0]
        encoder         : Lavc60.31.102 h264_qsv
  Stream #1:1[0x2](und): Audio: aac (HE-AACv2) (mp4a / 0x6134706D), 48000 Hz, stereo, fltp, 144 kb/s (default)
      Metadata:
        handler_name    : SoundHandler
        vendor_id       : [0][0][0][0]
Stream mapping:
  Stream #0:0 (hevc) -> settb:default
  Stream #1:0 (h264) -> settb:default
  psnr:default -> Stream #0:0 (wrapped_avframe)
  Stream #0:1 -> #0:1 (aac (native) -> pcm_s16le (native))
Output #0, null, to 'pipe:':
  Metadata:
    COMPATIBLE_BRANDS: isomiso2avc1mp41
    MAJOR_BRAND     : isom
    MINOR_VERSION   : 512
    encoder         : Lavf61.7.100
  Stream #0:0: Video: wrapped_avframe, yuv420p10le(tv, bt709, progressive), 1920x1080 [SAR 1:1 DAR 16:9], q=2-31, 200 kb/s, 23.98 fps, 23.98 tbn
      Metadata:
        encoder         : Lavc61.19.100 wrapped_avframe
  Stream #0:1: Audio: pcm_s16le, 48000 Hz, stereo, s16, 1536 kb/s (default)
      Metadata:
        HANDLER_NAME    : SoundHandler
        VENDOR_ID       : [0][0][0][0]
        _STATISTICS_TAGS: BPS DURATION NUMBER_OF_FRAMES NUMBER_OF_BYTES
        BPS             : 193194
        DURATION        : 00:24:06.784000000
        NUMBER_OF_FRAMES: 67819
        NUMBER_OF_BYTES : 34938755
        _STATISTICS_WRITING_APP: mkvpropedit v94.0 ('Initiate') 64-bit
        _STATISTICS_WRITING_DATE_UTC: 2026-01-12 13:06:02
        encoder         : Lavc61.19.100 pcm_s16le
frame=  120 fps=0.0 q=-0.0 size=N/A time=00:00:05.00 bitrate=N/A speed=9.73x    frame=  259 fps=253 q=-0.0 size=N/A time=00:00:10.80 bitrate=N/A speed=10.6x    frame=  442 fps=285 q=-0.0 size=N/A time=00:00:18.43 bitrate=N/A speed=11.9x    frame=  630 fps=305 q=-0.0 size=N/A time=00:00:26.27 bitrate=N/A speed=12.7x    frame=  821 fps=319 q=-0.0 size=N/A time=00:00:34.24 bitrate=N/A speed=13.3x    frame=  967 fps=314 q=-0.0 size=N/A time=00:00:40.33 bitrate=N/A speed=13.1x    frame= 1122 fps=311 q=-0.0 size=N/A time=00:00:46.79 bitrate=N/A speed=  13x    frame= 1276 fps=310 q=-0.0 size=N/A time=00:00:53.21 bitrate=N/A speed=12.9x    frame= 1430 fps=308 q=-0.0 size=N/A time=00:00:59.64 bitrate=N/A speed=12.8x    frame= 1554 fps=302 q=-0.0 size=N/A time=00:01:04.81 bitrate=N/A speed=12.6x    frame= 1700 fps=300 q=-0.0 size=N/A time=00:01:10.90 bitrate=N/A speed=12.5x    frame= 1863 fps=301 q=-0.0 size=N/A time=00:01:17.70 bitrate=N/A speed=12.6x    frame= 2029 fps=303 q=-0.0 size=N/A time=00:01:24.62 bitrate=N/A speed=12.6x    frame= 2105 fps=292 q=-0.0 size=N/A time=00:01:27.79 bitrate=N/A speed=12.2x    frame= 2265 fps=293 q=-0.0 size=N/A time=00:01:34.46 bitrate=N/A speed=12.2x    frame= 2403 fps=291 q=-0.0 size=N/A time=00:01:40.22 bitrate=N/A speed=12.2x    frame= 2530 fps=288 q=-0.0 size=N/A time=00:01:45.52 bitrate=N/A speed=  12x    frame= 2692 fps=289 q=-0.0 size=N/A time=00:01:52.27 bitrate=N/A speed=12.1x    frame= 2855 fps=291 q=-0.0 size=N/A time=00:01:59.07 bitrate=N/A speed=12.1x    frame= 3020 fps=293 q=-0.0 size=N/A time=00:02:05.95 bitrate=N/A speed=12.2x    frame= 3209 fps=296 q=-0.0 size=N/A time=00:02:13.84 bitrate=N/A speed=12.3x    frame= 3394 fps=299 q=-0.0 size=N/A time=00:02:21.55 bitrate=N/A speed=12.5x    frame= 3590 fps=302 q=-0.0 size=N/A time=00:02:29.73 bitrate=N/A speed=12.6x    frame= 3775 fps=305 q=-0.0 size=N/A time=00:02:37.44 bitrate=N/A speed=12.7x    frame= 3954 fps=307 q=-0.0 size=N/A time=00:02:44.91 bitrate=N/A speed=12.8x    frame= 4143 fps=309 q=-0.0 size=N/A time=00:02:52.79 bitrate=N/A speed=12.9x    frame= 4298 fps=308 q=-0.0 size=N/A time=00:02:59.26 bitrate=N/A speed=12.9x    frame= 4488 fps=310 q=-0.0 size=N/A time=00:03:07.18 bitrate=N/A speed=12.9x    frame= 4674 fps=312 q=-0.0 size=N/A time=00:03:14.94 bitrate=N/A speed=  13x    frame= 4867 fps=314 q=-0.0 size=N/A time=00:03:22.99 bitrate=N/A speed=13.1x    frame= 5037 fps=314 q=-0.0 size=N/A time=00:03:30.08 bitrate=N/A speed=13.1x    frame= 5215 fps=316 q=-0.0 size=N/A time=00:03:37.50 bitrate=N/A speed=13.2x    frame= 5382 fps=316 q=-0.0 size=N/A time=00:03:44.47 bitrate=N/A speed=13.2x    frame= 5558 fps=316 q=-0.0 size=N/A time=00:03:51.81 bitrate=N/A speed=13.2x    frame= 5723 fps=317 q=-0.0 size=N/A time=00:03:58.69 bitrate=N/A speed=13.2x    frame= 5905 fps=317 q=-0.0 size=N/A time=00:04:06.28 bitrate=N/A speed=13.2x    frame= 6077 fps=318 q=-0.0 size=N/A time=00:04:13.46 bitrate=N/A speed=13.3x    frame= 6265 fps=319 q=-0.0 size=N/A time=00:04:21.30 bitrate=N/A speed=13.3x    frame= 6411 fps=318 q=-0.0 size=N/A time=00:04:27.39 bitrate=N/A speed=13.3x    frame= 6561 fps=317 q=-0.0 size=N/A time=00:04:33.64 bitrate=N/A speed=13.2x    frame= 6700 fps=316 q=-0.0 size=N/A time=00:04:39.44 bitrate=N/A speed=13.2x    frame= 6862 fps=316 q=-0.0 size=N/A time=00:04:46.20 bitrate=N/A speed=13.2x    frame= 7030 fps=316 q=-0.0 size=N/A time=00:04:53.20 bitrate=N/A speed=13.2x    frame= 7190 fps=316 q=-0.0 size=N/A time=00:04:59.88 bitrate=N/A speed=13.2x    frame= 7345 fps=316 q=-0.0 size=N/A time=00:05:06.34 bitrate=N/A speed=13.2x    frame= 7511 fps=316 q=-0.0 size=N/A time=00:05:13.27 bitrate=N/A speed=13.2x    frame= 7666 fps=316 q=-0.0 size=N/A time=00:05:19.73 bitrate=N/A speed=13.2x    frame= 7829 fps=316 q=-0.0 size=N/A time=00:05:26.53 bitrate=N/A speed=13.2x    frame= 8005 fps=316 q=-0.0 size=N/A time=00:05:33.87 bitrate=N/A speed=13.2x    frame= 8167 fps=316 q=-0.0 size=N/A time=00:05:40.63 bitrate=N/A speed=13.2x    frame= 8327 fps=316 q=-0.0 size=N/A time=00:05:47.30 bitrate=N/A speed=13.2x    frame= 8496 fps=316 q=-0.0 size=N/A time=00:05:54.35 bitrate=N/A speed=13.2x    frame= 8650 fps=316 q=-0.0 size=N/A time=00:06:00.77 bitrate=N/A speed=13.2x    frame= 8809 fps=316 q=-0.0 size=N/A time=00:06:07.40 bitrate=N/A speed=13.2x    frame= 8966 fps=316 q=-0.0 size=N/A time=00:06:13.95 bitrate=N/A speed=13.2x    frame= 9131 fps=316 q=-0.0 size=N/A time=00:06:20.83 bitrate=N/A speed=13.2x    frame= 9301 fps=316 q=-0.0 size=N/A time=00:06:27.92 bitrate=N/A speed=13.2x    frame= 9473 fps=316 q=-0.0 size=N/A time=00:06:35.10 bitrate=N/A speed=13.2x    frame= 9650 fps=317 q=-0.0 size=N/A time=00:06:42.48 bitrate=N/A speed=13.2x    frame= 9825 fps=317 q=-0.0 size=N/A time=00:06:49.78 bitrate=N/A speed=13.2x    frame= 9997 fps=317 q=-0.0 size=N/A time=00:06:56.95 bitrate=N/A speed=13.2x    frame=10160 fps=317 q=-0.0 size=N/A time=00:07:03.75 bitrate=N/A speed=13.2x    frame=10338 fps=318 q=-0.0 size=N/A time=00:07:11.18 bitrate=N/A speed=13.3x    frame=10487 fps=317 q=-0.0 size=N/A time=00:07:17.39 bitrate=N/A speed=13.2x    frame=10661 fps=318 q=-0.0 size=N/A time=00:07:24.65 bitrate=N/A speed=13.2x    frame=10781 fps=316 q=-0.0 size=N/A time=00:07:29.65 bitrate=N/A speed=13.2x    frame=10971 fps=317 q=-0.0 size=N/A time=00:07:37.58 bitrate=N/A speed=13.2x    frame=11156 fps=318 q=-0.0 size=N/A time=00:07:45.29 bitrate=N/A speed=13.3x    frame=11340 fps=318 q=-0.0 size=N/A time=00:07:52.97 bitrate=N/A speed=13.3x    frame=11531 fps=319 q=-0.0 size=N/A time=00:08:00.93 bitrate=N/A speed=13.3x    frame=11734 fps=320 q=-0.0 size=N/A time=00:08:09.40 bitrate=N/A speed=13.4x    frame=11920 fps=321 q=-0.0 size=N/A time=00:08:17.16 bitrate=N/A speed=13.4x    frame=12117 fps=322 q=-0.0 size=N/A time=00:08:25.37 bitrate=N/A speed=13.4x    frame=12288 fps=322 q=-0.0 size=N/A time=00:08:32.51 bitrate=N/A speed=13.4x    frame=12479 fps=322 q=-0.0 size=N/A time=00:08:40.47 bitrate=N/A speed=13.4x    frame=12655 fps=323 q=-0.0 size=N/A time=00:08:47.81 bitrate=N/A speed=13.5x    frame=12836 fps=323 q=-0.0 size=N/A time=00:08:55.36 bitrate=N/A speed=13.5x    frame=13005 fps=323 q=-0.0 size=N/A time=00:09:02.41 bitrate=N/A speed=13.5x    frame=13181 fps=323 q=-0.0 size=N/A time=00:09:09.75 bitrate=N/A speed=13.5x    frame=13364 fps=324 q=-0.0 size=N/A time=00:09:17.39 bitrate=N/A speed=13.5x    frame=13543 fps=324 q=-0.0 size=N/A time=00:09:24.85 bitrate=N/A speed=13.5x    frame=13721 fps=324 q=-0.0 size=N/A time=00:09:32.28 bitrate=N/A speed=13.5x    frame=13898 fps=324 q=-0.0 size=N/A time=00:09:39.66 bitrate=N/A speed=13.5x    frame=14078 fps=325 q=-0.0 size=N/A time=00:09:47.16 bitrate=N/A speed=13.5x    frame=14234 fps=324 q=-0.0 size=N/A time=00:09:53.67 bitrate=N/A speed=13.5x    frame=14424 fps=325 q=-0.0 size=N/A time=00:10:01.60 bitrate=N/A speed=13.6x    frame=14586 fps=325 q=-0.0 size=N/A time=00:10:08.35 bitrate=N/A speed=13.5x    frame=14757 fps=325 q=-0.0 size=N/A time=00:10:15.48 bitrate=N/A speed=13.5x    frame=14896 fps=324 q=-0.0 size=N/A time=00:10:21.28 bitrate=N/A speed=13.5x    frame=15058 fps=324 q=-0.0 size=N/A time=00:10:28.04 bitrate=N/A speed=13.5x    frame=15195 fps=323 q=-0.0 size=N/A time=00:10:33.75 bitrate=N/A speed=13.5x    frame=15365 fps=324 q=-0.0 size=N/A time=00:10:40.84 bitrate=N/A speed=13.5x    frame=15530 fps=324 q=-0.0 size=N/A time=00:10:47.73 bitrate=N/A speed=13.5x    frame=15720 fps=324 q=-0.0 size=N/A time=00:10:55.65 bitrate=N/A speed=13.5x    frame=15891 fps=324 q=-0.0 size=N/A time=00:11:02.78 bitrate=N/A speed=13.5x    frame=16066 fps=324 q=-0.0 size=N/A time=00:11:10.08 bitrate=N/A speed=13.5x    frame=16247 fps=325 q=-0.0 size=N/A time=00:11:17.63 bitrate=N/A speed=13.5x    frame=16433 fps=325 q=-0.0 size=N/A time=00:11:25.39 bitrate=N/A speed=13.5x    frame=16598 fps=325 q=-0.0 size=N/A time=00:11:32.27 bitrate=N/A speed=13.6x    frame=16785 fps=325 q=-0.0 size=N/A time=00:11:40.07 bitrate=N/A speed=13.6x    frame=16950 fps=325 q=-0.0 size=N/A time=00:11:46.95 bitrate=N/A speed=13.6x    frame=17140 fps=326 q=-0.0 size=N/A time=00:11:54.88 bitrate=N/A speed=13.6x    frame=17299 fps=325 q=-0.0 size=N/A time=00:12:01.51 bitrate=N/A speed=13.6x    frame=17488 fps=326 q=-0.0 size=N/A time=00:12:09.39 bitrate=N/A speed=13.6x    frame=17659 fps=326 q=-0.0 size=N/A time=00:12:16.52 bitrate=N/A speed=13.6x    frame=17838 fps=326 q=-0.0 size=N/A time=00:12:23.99 bitrate=N/A speed=13.6x    frame=18007 fps=326 q=-0.0 size=N/A time=00:12:31.04 bitrate=N/A speed=13.6x    frame=18189 fps=326 q=-0.0 size=N/A time=00:12:38.63 bitrate=N/A speed=13.6x    frame=18358 fps=326 q=-0.0 size=N/A time=00:12:45.68 bitrate=N/A speed=13.6x    frame=18541 fps=327 q=-0.0 size=N/A time=00:12:53.31 bitrate=N/A speed=13.6x    frame=18696 fps=326 q=-0.0 size=N/A time=00:12:59.77 bitrate=N/A speed=13.6x    frame=18870 fps=326 q=-0.0 size=N/A time=00:13:07.03 bitrate=N/A speed=13.6x    frame=19030 fps=326 q=-0.0 size=N/A time=00:13:13.70 bitrate=N/A speed=13.6x    frame=19184 fps=326 q=-0.0 size=N/A time=00:13:20.13 bitrate=N/A speed=13.6x    frame=19348 fps=326 q=-0.0 size=N/A time=00:13:26.97 bitrate=N/A speed=13.6x    frame=19503 fps=326 q=-0.0 size=N/A time=00:13:33.43 bitrate=N/A speed=13.6x    frame=19662 fps=326 q=-0.0 size=N/A time=00:13:40.06 bitrate=N/A speed=13.6x    frame=19829 fps=326 q=-0.0 size=N/A time=00:13:47.03 bitrate=N/A speed=13.6x    frame=20001 fps=326 q=-0.0 size=N/A time=00:13:54.20 bitrate=N/A speed=13.6x    frame=20168 fps=326 q=-0.0 size=N/A time=00:14:01.17 bitrate=N/A speed=13.6x    frame=20338 fps=326 q=-0.0 size=N/A time=00:14:08.26 bitrate=N/A speed=13.6x    frame=20486 fps=325 q=-0.0 size=N/A time=00:14:14.43 bitrate=N/A speed=13.6x    frame=20657 fps=325 q=-0.0 size=N/A time=00:14:21.56 bitrate=N/A speed=13.6x    frame=20837 fps=326 q=-0.0 size=N/A time=00:14:29.07 bitrate=N/A speed=13.6x    frame=21019 fps=326 q=-0.0 size=N/A time=00:14:36.66 bitrate=N/A speed=13.6x    frame=21177 fps=326 q=-0.0 size=N/A time=00:14:43.25 bitrate=N/A speed=13.6x    frame=21366 fps=326 q=-0.0 size=N/A time=00:14:51.14 bitrate=N/A speed=13.6x    frame=21565 fps=326 q=-0.0 size=N/A time=00:14:59.44 bitrate=N/A speed=13.6x    frame=21744 fps=326 q=-0.0 size=N/A time=00:15:06.90 bitrate=N/A speed=13.6x    frame=21922 fps=327 q=-0.0 size=N/A time=00:15:14.33 bitrate=N/A speed=13.6x    frame=22100 fps=327 q=-0.0 size=N/A time=00:15:21.75 bitrate=N/A speed=13.6x    frame=22275 fps=327 q=-0.0 size=N/A time=00:15:29.05 bitrate=N/A speed=13.6x    frame=22458 fps=327 q=-0.0 size=N/A time=00:15:36.68 bitrate=N/A speed=13.6x    frame=22612 fps=327 q=-0.0 size=N/A time=00:15:43.10 bitrate=N/A speed=13.6x    frame=22794 fps=327 q=-0.0 size=N/A time=00:15:50.69 bitrate=N/A speed=13.6x    frame=22963 fps=327 q=-0.0 size=N/A time=00:15:57.74 bitrate=N/A speed=13.6x    frame=23144 fps=327 q=-0.0 size=N/A time=00:16:05.29 bitrate=N/A speed=13.6x    frame=23298 fps=327 q=-0.0 size=N/A time=00:16:11.72 bitrate=N/A speed=13.6x    frame=23478 fps=327 q=-0.0 size=N/A time=00:16:19.22 bitrate=N/A speed=13.6x    frame=23634 fps=327 q=-0.0 size=N/A time=00:16:25.73 bitrate=N/A speed=13.6x    frame=23811 fps=327 q=-0.0 size=N/A time=00:16:33.11 bitrate=N/A speed=13.6x    frame=23985 fps=327 q=-0.0 size=N/A time=00:16:40.37 bitrate=N/A speed=13.6x    frame=24159 fps=327 q=-0.0 size=N/A time=00:16:47.63 bitrate=N/A speed=13.6x    frame=24342 fps=327 q=-0.0 size=N/A time=00:16:55.26 bitrate=N/A speed=13.7x    frame=24526 fps=328 q=-0.0 size=N/A time=00:17:02.93 bitrate=N/A speed=13.7x    frame=24721 fps=328 q=-0.0 size=N/A time=00:17:11.07 bitrate=N/A speed=13.7x    frame=24887 fps=328 q=-0.0 size=N/A time=00:17:17.99 bitrate=N/A speed=13.7x    frame=25073 fps=328 q=-0.0 size=N/A time=00:17:25.75 bitrate=N/A speed=13.7x    frame=25245 fps=328 q=-0.0 size=N/A time=00:17:32.92 bitrate=N/A speed=13.7x    frame=25420 fps=328 q=-0.0 size=N/A time=00:17:40.22 bitrate=N/A speed=13.7x    frame=25586 fps=328 q=-0.0 size=N/A time=00:17:47.14 bitrate=N/A speed=13.7x    frame=25759 fps=328 q=-0.0 size=N/A time=00:17:54.36 bitrate=N/A speed=13.7x    frame=25941 fps=328 q=-0.0 size=N/A time=00:18:01.95 bitrate=N/A speed=13.7x    frame=26125 fps=329 q=-0.0 size=N/A time=00:18:09.63 bitrate=N/A speed=13.7x    frame=26301 fps=329 q=-0.0 size=N/A time=00:18:16.97 bitrate=N/A speed=13.7x    frame=26490 fps=329 q=-0.0 size=N/A time=00:18:24.85 bitrate=N/A speed=13.7x    frame=26680 fps=329 q=-0.0 size=N/A time=00:18:32.77 bitrate=N/A speed=13.7x    frame=26862 fps=329 q=-0.0 size=N/A time=00:18:40.36 bitrate=N/A speed=13.7x    frame=27036 fps=329 q=-0.0 size=N/A time=00:18:47.62 bitrate=N/A speed=13.7x    frame=27210 fps=329 q=-0.0 size=N/A time=00:18:54.88 bitrate=N/A speed=13.7x    frame=27366 fps=329 q=-0.0 size=N/A time=00:19:01.39 bitrate=N/A speed=13.7x    frame=27559 fps=330 q=-0.0 size=N/A time=00:19:09.43 bitrate=N/A speed=13.7x    frame=27730 fps=330 q=-0.0 size=N/A time=00:19:16.57 bitrate=N/A speed=13.7x    frame=27926 fps=330 q=-0.0 size=N/A time=00:19:24.74 bitrate=N/A speed=13.8x    frame=28085 fps=330 q=-0.0 size=N/A time=00:19:31.37 bitrate=N/A speed=13.8x    frame=28276 fps=330 q=-0.0 size=N/A time=00:19:39.34 bitrate=N/A speed=13.8x    frame=28456 fps=330 q=-0.0 size=N/A time=00:19:46.85 bitrate=N/A speed=13.8x    frame=28636 fps=330 q=-0.0 size=N/A time=00:19:54.35 bitrate=N/A speed=13.8x    frame=28797 fps=330 q=-0.0 size=N/A time=00:20:01.07 bitrate=N/A speed=13.8x    frame=28959 fps=330 q=-0.0 size=N/A time=00:20:07.83 bitrate=N/A speed=13.8x    frame=29120 fps=330 q=-0.0 size=N/A time=00:20:14.54 bitrate=N/A speed=13.8x    frame=29290 fps=330 q=-0.0 size=N/A time=00:20:21.63 bitrate=N/A speed=13.8x    frame=29454 fps=330 q=-0.0 size=N/A time=00:20:28.47 bitrate=N/A speed=13.8x    frame=29603 fps=330 q=-0.0 size=N/A time=00:20:34.69 bitrate=N/A speed=13.7x    frame=29766 fps=330 q=-0.0 size=N/A time=00:20:41.49 bitrate=N/A speed=13.7x    frame=29927 fps=329 q=-0.0 size=N/A time=00:20:48.20 bitrate=N/A speed=13.7x    frame=30092 fps=329 q=-0.0 size=N/A time=00:20:55.08 bitrate=N/A speed=13.7x    frame=30251 fps=329 q=-0.0 size=N/A time=00:21:01.71 bitrate=N/A speed=13.7x    frame=30415 fps=329 q=-0.0 size=N/A time=00:21:08.55 bitrate=N/A speed=13.7x    frame=30603 fps=329 q=-0.0 size=N/A time=00:21:16.40 bitrate=N/A speed=13.7x    frame=30785 fps=330 q=-0.0 size=N/A time=00:21:23.99 bitrate=N/A speed=13.7x    frame=30926 fps=329 q=-0.0 size=N/A time=00:21:29.87 bitrate=N/A speed=13.7x    frame=31093 fps=329 q=-0.0 size=N/A time=00:21:36.83 bitrate=N/A speed=13.7x    frame=31271 fps=329 q=-0.0 size=N/A time=00:21:44.26 bitrate=N/A speed=13.7x    frame=31449 fps=329 q=-0.0 size=N/A time=00:21:51.68 bitrate=N/A speed=13.7x    frame=31629 fps=329 q=-0.0 size=N/A time=00:21:59.19 bitrate=N/A speed=13.7x    frame=31803 fps=330 q=-0.0 size=N/A time=00:22:06.45 bitrate=N/A speed=13.7x    frame=31977 fps=330 q=-0.0 size=N/A time=00:22:13.70 bitrate=N/A speed=13.7x    frame=32157 fps=330 q=-0.0 size=N/A time=00:22:21.21 bitrate=N/A speed=13.7x    frame=32338 fps=330 q=-0.0 size=N/A time=00:22:28.76 bitrate=N/A speed=13.8x    frame=32519 fps=330 q=-0.0 size=N/A time=00:22:36.31 bitrate=N/A speed=13.8x    frame=32657 fps=330 q=-0.0 size=N/A time=00:22:42.06 bitrate=N/A speed=13.7x    frame=32821 fps=329 q=-0.0 size=N/A time=00:22:48.90 bitrate=N/A speed=13.7x    frame=32981 fps=329 q=-0.0 size=N/A time=00:22:55.58 bitrate=N/A speed=13.7x    frame=33162 fps=329 q=-0.0 size=N/A time=00:23:03.13 bitrate=N/A speed=13.7x    frame=33305 fps=329 q=-0.0 size=N/A time=00:23:09.09 bitrate=N/A speed=13.7x    frame=33477 fps=329 q=-0.0 size=N/A time=00:23:16.26 bitrate=N/A speed=13.7x    frame=33630 fps=329 q=-0.0 size=N/A time=00:23:22.65 bitrate=N/A speed=13.7x    frame=33765 fps=329 q=-0.0 size=N/A time=00:23:28.28 bitrate=N/A speed=13.7x    frame=33888 fps=328 q=-0.0 size=N/A time=00:23:33.41 bitrate=N/A speed=13.7x    frame=34043 fps=328 q=-0.0 size=N/A time=00:23:39.87 bitrate=N/A speed=13.7x    frame=34194 fps=328 q=-0.0 size=N/A time=00:23:46.17 bitrate=N/A speed=13.7x    frame=34335 fps=328 q=-0.0 size=N/A time=00:23:52.05 bitrate=N/A speed=13.7x    frame=34455 fps=327 q=-0.0 size=N/A time=00:23:57.06 bitrate=N/A speed=13.7x    frame=34632 fps=327 q=-0.0 size=N/A time=00:24:04.44 bitrate=N/A speed=13.7x    [Parsed_psnr_16 @ 0000013959cbd100] PSNR y:49.172724 u:50.544126 v:50.609969 average:49.592287 min:37.962347 max:inf
[out#0/null @ 000001394cb48a00] video:14903KiB audio:271276KiB subtitle:0KiB other streams:0KiB global headers:0KiB muxing overhead: unknown
frame=34683 fps=327 q=-0.0 Lsize=N/A time=00:24:06.57 bitrate=N/A speed=13.7x    
